<?xml version="1.0" encoding="UTF-8" standalone="no"?>
<svg
   xmlns:dc="http://purl.org/dc/elements/1.1/"
   xmlns:cc="http://creativecommons.org/ns#"
   xmlns:rdf="http://www.w3.org/1999/02/22-rdf-syntax-ns#"
   xmlns:svg="http://www.w3.org/2000/svg"
   xmlns="http://www.w3.org/2000/svg"
   viewBox="0 0 155 225"
   height="225"
   width="155"
   id="svg2"
   version="1.1">
  <metadata
     id="metadata8">
    <rdf:RDF>
      <cc:Work
         rdf:about="">
        <dc:format>image/svg+xml</dc:format>
        <dc:type
           rdf:resource="http://purl.org/dc/dcmitype/StillImage" />
        <dc:title></dc:title>
      </cc:Work>
    </rdf:RDF>
  </metadata>
  <defs
     id="defs6" />
  <g
     transform="translate(-34.322037,0.95338547)"
     id="g3715">
    <path
       id="path3733"
       d="M 82.525753,173.31968 C 66.171561,144.81885 51.760758,119.89444 50.501746,117.9321 41.44612,103.81763 37.586071,90.981313 37.591497,75 37.596234,61.048174 39.242276,54.099977 45.646166,41 49.576337,32.960332 51.689813,30.102253 59.395108,22.407137 69.449386,12.366142 77.428169,7.3223963 89.833349,3.1657622 96.708276,0.86216338 99.049028,0.59687858 112.5,0.59687858 c 13.45097,0 15.79172,0.2652848 22.66665,2.56888362 12.5137,4.1929948 20.38746,9.1780778 30.43442,19.2688208 7.63599,7.669271 9.84927,10.663958 13.74894,18.603072 6.32677,12.880307 8.00054,19.951219 8.03931,33.962345 0.0337,12.178044 -2.13711,22.664988 -6.43599,31.09148 -2.75992,5.40988 -67.00567,117.20673 -67.94162,118.2282 -0.41309,0.45082 -14.131765,-22.49918 -30.485957,-51 z m 38.146697,-71.81505 c 3.00654,-0.89284 6.96555,-3.194308 9.82568,-5.711895 12.84745,-11.308782 12.84745,-30.276688 0,-41.58547 -10.68242,-9.403041 -25.31384,-9.403041 -35.996256,0 -12.853848,11.31441 -12.84789,30.276305 0.01307,41.596976 7.584716,6.676339 16.401256,8.597689 26.157506,5.700389 z"
       style="fill:#f4d0cd" />
    <path
       id="path3731"
       d="M 87.008256,180.75066 C 73.044649,156.4128 57.688159,129.75 52.882722,121.5 43.30337,105.05412 39.465982,95.163814 37.938788,82.984198 36.129341,68.553578 40.022332,50.259794 47.724412,37 53.459605,27.126371 66.767361,14.318968 76.5,9.3063347 90.090662,2.3066903 97.476351,0.5 112.5,0.5 c 15.02365,0 22.40934,1.8066903 36,8.8063347 C 158.23264,14.318968 171.5404,27.126371 177.27559,37 c 7.79649,13.422337 11.6158,31.821668 9.65241,46.5 -1.66422,12.441643 -5.30419,21.67132 -15.38071,39 -5.11714,8.8 -19.75514,34.225 -32.52888,56.5 -12.77374,22.275 -23.98926,41.7378 -24.92338,43.25066 l -1.6984,2.75067 z m 37.715184,-80.6076 C 149.71094,87.383728 142.8444,49.771131 115.07239,47.277867 98.562042,45.79563 84.769231,58.413659 84.769231,75 c 0,12.097893 7.221727,22.252959 18.928759,26.61729 5.30933,1.97929 15.6872,1.25163 21.02545,-1.47423 z"
       style="fill:#eca49e" />
    <path
       id="path3729"
       d="M 108.23499,217.34841 C 90.247856,186.30562 48.957828,114.30736 46.385395,109.5 40.753266,98.974692 38.854516,91.693111 38.271218,78.382669 37.626444,63.669376 39.286175,54.914828 44.912165,43.353811 54.997357,22.629447 72.285633,8.2031422 94,2.3921742 c 8.88145,-2.37675809 28.11855,-2.37675809 37,0 15.67562,4.1949419 31.7542,14.8409318 40.65436,26.9181628 10.05051,13.638214 14.22275,25.140863 15.05497,41.505842 0.73527,14.458286 -1.2873,24.83695 -7.09989,36.432641 -4.21873,8.41607 -65.09224,114.55626 -66.58542,116.09959 -0.45147,0.46663 -2.60653,-2.23337 -4.78903,-6 z M 124.80021,99.941972 c 10.37525,-5.184575 15.55104,-13.517552 15.58947,-25.098942 0.018,-5.440535 -0.52129,-7.71946 -2.95156,-12.471466 -10.83718,-21.190415 -40.98256,-20.253606 -50.766257,1.577631 -5.012392,11.184599 -1.2066,25.661629 8.717949,33.162614 5.969688,4.511891 9.367218,5.654801 17.200468,5.786101 4.92143,0.0825 7.26476,-0.48481 12.20993,-2.955938 z"
       style="fill:#e1827a" />
    <path
       id="path3727"
       d="M 81.923795,171.31173 C 65.229787,142.26528 49.856916,115.575 47.761859,112 36.69271,93.111634 34.961261,67.753592 43.326598,47.043107 48.897056,33.252042 59.168622,20.662502 71.5,12.511843 85.403824,3.321846 105.10025,-1.2390537 121.47397,0.93988239 153.91814,5.2573967 178.85094,28.321795 185.66639,60.321897 c 3.19501,15.001321 0.0628,37.070618 -6.97972,49.178103 -1.27966,2.2 -16.41484,28.525 -33.63372,58.5 -17.21889,29.975 -31.63767,54.86528 -32.04174,55.31173 -0.40407,0.44646 -14.393408,-22.95354 -31.087415,-52 z m 40.281475,-69.86601 c 6.10538,-2.080309 11.72386,-7.070774 15.29672,-13.586918 2.52322,-4.60182 2.93508,-6.418248 2.91562,-12.858802 -0.0172,-5.698877 -0.5389,-8.488569 -2.17234,-11.61647 C 135.08915,57.339786 131.3801,53.308137 126.1446,50.230387 122.01318,47.80168 120.50559,47.50042 112.5,47.503804 102.68015,47.507955 99.962206,48.460252 93.449276,54.17868 87.513976,59.389942 84.613271,66.202931 84.58437,75 c -0.02117,6.442705 0.389577,8.255444 2.913641,12.858802 6.979742,12.729568 21.053739,18.239148 34.707259,13.586918 z"
       style="fill:#e36458" />
    <path
       id="path3725"
       d="M 85.553983,177.22125 C 70.815086,151.52456 55.694522,125.325 51.95273,119 40.740995,100.04806 37.141697,87.175615 38.30823,70.202137 39.382336,54.573524 44.692925,40.488236 53.764284,29.208011 68.79529,10.516971 88.805897,0.85866273 112.5,0.85866273 c 13.43818,0 23.18207,2.31391487 34.46705,8.18500617 18.09807,9.4156491 32.36604,27.0779921 37.52829,46.4563311 3.73295,14.012924 2.91449,31.859548 -2.06818,45.09729 -1.31212,3.48598 -6.38471,13.21518 -11.27241,21.62043 -4.88771,8.40525 -19.5973,33.95728 -32.68798,56.78228 -13.09068,22.825 -24.32178,42.27456 -24.95801,43.22125 -0.98072,1.45928 -5.23533,-5.38954 -27.954777,-45 z M 126.49727,99.554469 C 135.05243,94.54081 141,84.471023 141,75 141,64.845341 133.84121,53.697692 124.5381,49.365591 120.76251,47.60744 117.74586,47.019538 112.5,47.019538 c -8.88625,0 -15.509341,2.912054 -21.11998,9.286076 -6.871929,7.806924 -8.924076,17.683825 -5.729424,27.57549 5.379148,16.655566 25.800004,24.491296 40.846674,15.673365 z"
       style="fill:#e54a3a" />
    <path
       id="path3723"
       d="m 91,187 c -0.588702,-1.1 -0.845368,-2 -0.570368,-2 0.275,0 0.981666,0.9 1.570368,2 0.588702,1.1 0.845368,2 0.570368,2 -0.275,0 -0.981666,-0.9 -1.570368,-2 z m 42,0 c 0.5887,-1.1 1.29537,-2 1.57037,-2 0.275,0 0.0183,0.9 -0.57037,2 -0.5887,1.1 -1.29537,2 -1.57037,2 -0.275,0 -0.0183,-0.9 0.57037,-2 z m -46,-7 c -0.588702,-1.1 -0.845368,-2 -0.570368,-2 0.275,0 0.981666,0.9 1.570368,2 0.588702,1.1 0.845368,2 0.570368,2 -0.275,0 -0.981666,-0.9 -1.570368,-2 z m 50,0 c 0.5887,-1.1 1.29537,-2 1.57037,-2 0.275,0 0.0183,0.9 -0.57037,2 -0.5887,1.1 -1.29537,2 -1.57037,2 -0.275,0 -0.0183,-0.9 0.57037,-2 z m -54,-7 c -0.588702,-1.1 -0.845368,-2 -0.570368,-2 0.275,0 0.981666,0.9 1.570368,2 0.588702,1.1 0.845368,2 0.570368,2 -0.275,0 -0.981666,-0.9 -1.570368,-2 z m 58,0 c 0.5887,-1.1 1.29537,-2 1.57037,-2 0.275,0 0.0183,0.9 -0.57037,2 -0.5887,1.1 -1.29537,2 -1.57037,2 -0.275,0 -0.0183,-0.9 0.57037,-2 z m -62,-7 c -0.588702,-1.1 -0.845368,-2 -0.570368,-2 0.275,0 0.981666,0.9 1.570368,2 0.588702,1.1 0.845368,2 0.570368,2 -0.275,0 -0.981666,-0.9 -1.570368,-2 z m 66,0 c 0.5887,-1.1 1.29537,-2 1.57037,-2 0.275,0 0.0183,0.9 -0.57037,2 -0.5887,1.1 -1.29537,2 -1.57037,2 -0.275,0 -0.0183,-0.9 0.57037,-2 z M 100.10463,120.41748 C 77.62358,114.37199 62.203446,90.508524 66.048315,67.713556 c 0.645766,-3.828534 2.706506,-9.952524 4.669259,-13.875836 17.273237,-34.527166 66.769966,-34.320893 83.676856,0.348715 6.79975,13.943701 6.80665,27.668754 0.0209,41.584817 -4.01444,8.232748 -11.70629,16.436438 -19.27158,20.553988 -10.06078,5.47576 -23.88876,7.09074 -35.03913,4.09224 z M 126.49727,99.554469 C 135.05243,94.54081 141,84.471023 141,75 141,64.845341 133.84121,53.697692 124.5381,49.365591 120.76251,47.60744 117.74586,47.019538 112.5,47.019538 c -8.88625,0 -15.509341,2.912054 -21.11998,9.286076 -6.871929,7.806924 -8.924076,17.683825 -5.729424,27.57549 5.379148,16.655566 25.800004,24.491296 40.846674,15.673365 z M 39.078947,87.416667 c 0.04798,-1.164943 0.284941,-1.4019 0.604167,-0.604167 0.288871,0.721875 0.253344,1.584375 -0.07895,1.916667 -0.332292,0.332291 -0.568641,-0.258334 -0.52522,-1.3125 z m 146.000003,0 c 0.048,-1.164943 0.28494,-1.4019 0.60416,-0.604167 0.28887,0.721875 0.25335,1.584375 -0.0789,1.916667 -0.3323,0.332291 -0.56864,-0.258334 -0.52522,-1.3125 z M 38.349414,75 c 0,-4.675 0.172256,-6.5875 0.382791,-4.25 0.210535,2.3375 0.210535,6.1625 0,8.5 C 38.52167,81.5875 38.349414,79.675 38.349414,75 Z M 186.34281,74.5 c 0.004,-4.4 0.17944,-6.075605 0.39069,-3.723567 0.21124,2.352038 0.20827,5.952038 -0.007,8 C 186.51202,80.824395 186.33918,78.9 186.34281,74.5 Z M 44,45.059017 c 0,-0.517541 0.444846,-1.215913 0.988546,-1.551938 0.56686,-0.350339 0.734507,0.05106 0.393011,0.940983 C 44.716766,46.180479 44,46.497449 44,45.059017 Z M 55.5,27 c 0.995486,-1.1 2.034975,-2 2.309975,-2 0.275,0 -0.314489,0.9 -1.309975,2 -0.995486,1.1 -2.034975,2 -2.309975,2 -0.275,0 0.314489,-0.9 1.309975,-2 z M 168.40499,26.75 166.5,24.5 l 2.25,1.904988 c 1.2375,1.047743 2.25,2.060243 2.25,2.25 0,0.800253 -0.80479,0.209457 -2.59501,-1.904988 z M 64.5,18 c 0.995486,-1.1 2.034975,-2 2.309975,-2 0.275,0 -0.314489,0.9 -1.309975,2 -0.995486,1.1 -2.034975,2 -2.309975,2 -0.275,0 0.314489,-0.9 1.309975,-2 z M 159.40499,17.75 157.5,15.5 l 2.25,1.904988 C 161.86444,19.195206 162.45524,20 161.65499,20 c -0.18976,0 -1.20226,-1.0125 -2.25,-2.25 z M 72,12.570368 c 0,-0.275 0.9,-0.981666 2,-1.570368 1.1,-0.588702 2,-0.845368 2,-0.570368 0,0.275 -0.9,0.981666 -2,1.570368 -1.1,0.588702 -2,0.845368 -2,0.570368 z m 78.44113,-1.125534 c -1.86402,-1.4933924 -1.85176,-1.5118557 0.30887,-0.464816 1.2375,0.599692 2.25,1.299517 2.25,1.555166 0,0.76522 -0.51861,0.544238 -2.55887,-1.09035 z M 101.75,1.3377193 c 0.6875,-0.2774123 1.8125,-0.2774123 2.5,0 0.6875,0.2774123 0.125,0.504386 -1.25,0.504386 -1.375,0 -1.9375,-0.2269737 -1.25,-0.504386 z m 19,0 c 0.6875,-0.2774123 1.8125,-0.2774123 2.5,0 0.6875,0.2774123 0.125,0.504386 -1.25,0.504386 -1.375,0 -1.9375,-0.2269737 -1.25,-0.504386 z"
       style="fill:#d34233" />
    <path
       id="path3721"
       d="m 91,187 c -0.588702,-1.1 -0.845368,-2 -0.570368,-2 0.275,0 0.981666,0.9 1.570368,2 0.588702,1.1 0.845368,2 0.570368,2 -0.275,0 -0.981666,-0.9 -1.570368,-2 z m 42,0 c 0.5887,-1.1 1.29537,-2 1.57037,-2 0.275,0 0.0183,0.9 -0.57037,2 -0.5887,1.1 -1.29537,2 -1.57037,2 -0.275,0 -0.0183,-0.9 0.57037,-2 z m -46,-7 c -0.588702,-1.1 -0.845368,-2 -0.570368,-2 0.275,0 0.981666,0.9 1.570368,2 0.588702,1.1 0.845368,2 0.570368,2 -0.275,0 -0.981666,-0.9 -1.570368,-2 z m 50,0 c 0.5887,-1.1 1.29537,-2 1.57037,-2 0.275,0 0.0183,0.9 -0.57037,2 -0.5887,1.1 -1.29537,2 -1.57037,2 -0.275,0 -0.0183,-0.9 0.57037,-2 z m -54,-7 c -0.588702,-1.1 -0.845368,-2 -0.570368,-2 0.275,0 0.981666,0.9 1.570368,2 0.588702,1.1 0.845368,2 0.570368,2 -0.275,0 -0.981666,-0.9 -1.570368,-2 z m 58,0 c 0.5887,-1.1 1.29537,-2 1.57037,-2 0.275,0 0.0183,0.9 -0.57037,2 -0.5887,1.1 -1.29537,2 -1.57037,2 -0.275,0 -0.0183,-0.9 0.57037,-2 z m -62,-7 c -0.588702,-1.1 -0.845368,-2 -0.570368,-2 0.275,0 0.981666,0.9 1.570368,2 0.588702,1.1 0.845368,2 0.570368,2 -0.275,0 -0.981666,-0.9 -1.570368,-2 z m 66,0 c 0.5887,-1.1 1.29537,-2 1.57037,-2 0.275,0 0.0183,0.9 -0.57037,2 -0.5887,1.1 -1.29537,2 -1.57037,2 -0.275,0 -0.0183,-0.9 0.57037,-2 z M 103.51016,120.82478 C 82.186469,116.75844 66.023738,97.000531 66.023738,75 c 0,-22.944238 16.811019,-42.47374 39.605882,-46.010484 27.8298,-4.317941 53.34664,17.689861 53.34664,46.010484 0,22.394902 -16.29749,41.87734 -38.40992,45.91621 -6.84355,1.24998 -10.11377,1.23245 -17.05618,-0.0914 z m 20.76927,-20.05054 c 5.96673,-2.554078 12.99688,-10.202101 15.12854,-16.458177 3.39723,-9.970319 1.23875,-20.155968 -5.97057,-28.17446 -11.29126,-12.558608 -30.58354,-12.558608 -41.874804,0 -9.948142,11.064728 -10.097231,26.28914 -0.365708,37.344734 8.737066,9.925833 20.741772,12.570403 33.082542,7.287903 z M 39.078947,87.416667 c 0.04798,-1.164943 0.284941,-1.4019 0.604167,-0.604167 0.288871,0.721875 0.253344,1.584375 -0.07895,1.916667 -0.332292,0.332291 -0.568641,-0.258334 -0.52522,-1.3125 z m 146.000003,0 c 0.048,-1.164943 0.28494,-1.4019 0.60416,-0.604167 0.28887,0.721875 0.25335,1.584375 -0.0789,1.916667 -0.3323,0.332291 -0.56864,-0.258334 -0.52522,-1.3125 z M 38.349414,75 c 0,-4.675 0.172256,-6.5875 0.382791,-4.25 0.210535,2.3375 0.210535,6.1625 0,8.5 C 38.52167,81.5875 38.349414,79.675 38.349414,75 Z M 186.34281,74.5 c 0.004,-4.4 0.17944,-6.075605 0.39069,-3.723567 0.21124,2.352038 0.20827,5.952038 -0.007,8 C 186.51202,80.824395 186.33918,78.9 186.34281,74.5 Z M 44,45.059017 c 0,-0.517541 0.444846,-1.215913 0.988546,-1.551938 0.56686,-0.350339 0.734507,0.05106 0.393011,0.940983 C 44.716766,46.180479 44,46.497449 44,45.059017 Z M 55.5,27 c 0.995486,-1.1 2.034975,-2 2.309975,-2 0.275,0 -0.314489,0.9 -1.309975,2 -0.995486,1.1 -2.034975,2 -2.309975,2 -0.275,0 0.314489,-0.9 1.309975,-2 z M 168.40499,26.75 166.5,24.5 l 2.25,1.904988 c 1.2375,1.047743 2.25,2.060243 2.25,2.25 0,0.800253 -0.80479,0.209457 -2.59501,-1.904988 z M 64.5,18 c 0.995486,-1.1 2.034975,-2 2.309975,-2 0.275,0 -0.314489,0.9 -1.309975,2 -0.995486,1.1 -2.034975,2 -2.309975,2 -0.275,0 0.314489,-0.9 1.309975,-2 z M 159.40499,17.75 157.5,15.5 l 2.25,1.904988 C 161.86444,19.195206 162.45524,20 161.65499,20 c -0.18976,0 -1.20226,-1.0125 -2.25,-2.25 z M 72,12.570368 c 0,-0.275 0.9,-0.981666 2,-1.570368 1.1,-0.588702 2,-0.845368 2,-0.570368 0,0.275 -0.9,0.981666 -2,1.570368 -1.1,0.588702 -2,0.845368 -2,0.570368 z m 78.44113,-1.125534 c -1.86402,-1.4933924 -1.85176,-1.5118557 0.30887,-0.464816 1.2375,0.599692 2.25,1.299517 2.25,1.555166 0,0.76522 -0.51861,0.544238 -2.55887,-1.09035 z M 101.75,1.3377193 c 0.6875,-0.2774123 1.8125,-0.2774123 2.5,0 0.6875,0.2774123 0.125,0.504386 -1.25,0.504386 -1.375,0 -1.9375,-0.2269737 -1.25,-0.504386 z m 19,0 c 0.6875,-0.2774123 1.8125,-0.2774123 2.5,0 0.6875,0.2774123 0.125,0.504386 -1.25,0.504386 -1.375,0 -1.9375,-0.2269737 -1.25,-0.504386 z"
       style="fill:#dd3b29" />
    <path
       id="path3719"
       d="M 103.51016,120.82478 C 82.186469,116.75844 66.023738,97.000531 66.023738,75 c 0,-22.944238 16.811019,-42.47374 39.605882,-46.010484 27.8298,-4.317941 53.34664,17.689861 53.34664,46.010484 0,22.394902 -16.29749,41.87734 -38.40992,45.91621 -6.84355,1.24998 -10.11377,1.23245 -17.05618,-0.0914 z m 20.76927,-20.05054 c 5.96673,-2.554078 12.99688,-10.202101 15.12854,-16.458177 3.39723,-9.970319 1.23875,-20.155968 -5.97057,-28.17446 -11.29126,-12.558608 -30.58354,-12.558608 -41.874804,0 -9.948142,11.064728 -10.097231,26.28914 -0.365708,37.344734 8.737066,9.925833 20.741772,12.570403 33.082542,7.287903 z"
       style="fill:#be3729" />
    <path
       id="path3717"
       d="m 106.8125,103.31689 c 0.72187,-0.28887 1.58437,-0.25335 1.91667,0.0789 0.33229,0.3323 -0.25834,0.56864 -1.3125,0.52522 -1.16495,-0.048 -1.4019,-0.28494 -0.60417,-0.60416 z m 10,0 c 0.72187,-0.28887 1.58437,-0.25335 1.91667,0.0789 0.33229,0.3323 -0.25834,0.56864 -1.3125,0.52522 -1.16495,-0.048 -1.4019,-0.28494 -0.60417,-0.60416 z M 91.452948,94.75 87.5,90.5 91.75,94.452948 C 95.702458,98.12915 96.459525,99 95.702948,99 c -0.163379,0 -2.075879,-1.9125 -4.25,-4.25 z M 132,95.5 c 1.86578,-1.925 3.61733,-3.5 3.89233,-3.5 0.275,0 -1.02655,1.575 -2.89233,3.5 -1.86578,1.925 -3.61733,3.5 -3.89233,3.5 -0.275,0 1.02655,-1.575 2.89233,-3.5 z M 83.272364,75 c 0,-2.475 0.195016,-3.4875 0.433369,-2.25 0.238353,1.2375 0.238353,3.2625 0,4.5 -0.238353,1.2375 -0.433369,0.225 -0.433369,-2.25 z m 57.979816,0.5 c 0.0111,-2.2 0.21589,-2.982253 0.45508,-1.738341 0.23919,1.243913 0.23011,3.043913 -0.0202,4 C 141.43679,78.717747 141.24108,77.7 141.25218,75.5 Z M 88,58.622445 c 0,-0.207656 0.7875,-0.995156 1.75,-1.75 C 91.336056,55.628574 91.371426,55.663944 90.127555,57.25 88.821186,58.915748 88,59.445479 88,58.622445 Z M 134.87244,57.25 C 133.62857,55.663944 133.66394,55.628574 135.25,56.872445 136.91575,58.178814 137.44548,59 136.62244,59 c -0.20765,0 -0.99515,-0.7875 -1.75,-1.75 z M 93.5,53 c 0.995486,-1.1 2.034975,-2 2.309975,-2 0.275,0 -0.314489,0.9 -1.309975,2 -0.995486,1.1 -2.034975,2 -2.309975,2 -0.275,0 0.314489,-0.9 1.309975,-2 z M 130.40499,52.75 128.5,50.5 l 2.25,1.904988 C 132.86444,54.195206 133.45524,55 132.65499,55 c -0.18976,0 -1.20226,-1.0125 -2.25,-2.25 z m -23.13596,-6.442991 c 0.97297,-0.253543 2.32297,-0.236869 3,0.03705 0.67703,0.273923 -0.11903,0.481368 -1.76903,0.460988 -1.65,-0.02038 -2.20394,-0.244498 -1.23097,-0.498042 z m 8,0 c 0.97297,-0.253543 2.32297,-0.236869 3,0.03705 0.67703,0.273923 -0.11903,0.481368 -1.76903,0.460988 -1.65,-0.02038 -2.20394,-0.244498 -1.23097,-0.498042 z"
       style="fill:#bc2612" />
  </g>
</svg>
